<svg xmlns="http://www.w3.org/2000/svg" viewBox="0 0 512 512">
  <defs>
    <!-- Prism left face - translucent glass -->
    <linearGradient id="faceL" x1="0%" y1="0%" x2="80%" y2="100%">
      <stop offset="0%" stop-color="#E0F7FA" stop-opacity="0.95"/>
      <stop offset="100%" stop-color="#B2EBF2" stop-opacity="0.85"/>
    </linearGradient>
    <!-- Prism right face - deeper glass -->
    <linearGradient id="faceR" x1="20%" y1="0%" x2="100%" y2="100%">
      <stop offset="0%" stop-color="#80DEEA" stop-opacity="0.85"/>
      <stop offset="100%" stop-color="#4DD0E1" stop-opacity="0.9"/>
    </linearGradient>
    <!-- Emoji shine -->
    <radialGradient id="shine" cx="30%" cy="28%" r="40%">
      <stop offset="0%" stop-color="white" stop-opacity="0.75"/>
      <stop offset="100%" stop-color="white" stop-opacity="0"/>
    </radialGradient>
    <!-- Internal refraction band -->
    <linearGradient id="band" x1="0%" y1="0%" x2="0%" y2="100%">
      <stop offset="0%" stop-color="#FF5252"/>
      <stop offset="20%" stop-color="#FF9800"/>
      <stop offset="40%" stop-color="#FFEB3B"/>
      <stop offset="60%" stop-color="#66BB6A"/>
      <stop offset="80%" stop-color="#42A5F5"/>
      <stop offset="100%" stop-color="#AB47BC"/>
    </linearGradient>
    <!-- Prism shadow -->
    <filter id="shadow">
      <feDropShadow dx="0" dy="4" stdDeviation="8" flood-color="#000" flood-opacity="0.5"/>
    </filter>
    <!-- Sparkle glow -->
    <filter id="glow">
      <feGaussianBlur stdDeviation="3"/>
      <feMerge><feMergeNode/><feMergeNode in="SourceGraphic"/></feMerge>
    </filter>
    <!-- Beam glow -->
    <filter id="beamGlow">
      <feGaussianBlur stdDeviation="5" result="blur"/>
      <feMerge><feMergeNode in="blur"/><feMergeNode in="SourceGraphic"/></feMerge>
    </filter>
    <!-- Background clip -->
    <clipPath id="bg">
      <rect x="12" y="12" width="488" height="488" rx="64"/>
    </clipPath>
    <!-- Prism clip -->
    <clipPath id="pc">
      <path d="M246,117 L90,383 Q80,400 100,400 L412,400 Q432,400 422,383 L266,117 Q256,100 246,117 Z"/>
    </clipPath>
  </defs>

  <!-- Dark background (album cover atmosphere) -->
  <rect x="12" y="12" width="488" height="488" rx="64" fill="#0D1117"/>

  <!-- All content clipped to rounded background -->
  <g clip-path="url(#bg)">

    <!-- ====== Rainbow spectrum fan (6 bands, Dark Side style) ====== -->
    <g opacity="0.92" filter="url(#beamGlow)">
      <polygon points="345,250 520,20 520,100" fill="#FF1744"/>
      <polygon points="345,250 520,100 520,178" fill="#FF6D00"/>
      <polygon points="345,250 520,178 520,256" fill="#FFD600"/>
      <polygon points="345,250 520,256 520,334" fill="#00E676"/>
      <polygon points="345,250 520,334 520,412" fill="#2979FF"/>
      <polygon points="345,250 520,412 520,500" fill="#AA00FF"/>
    </g>

    <!-- ====== Incoming white beam ====== -->
    <g filter="url(#beamGlow)">
      <line x1="-10" y1="258" x2="168" y2="258" stroke="white" stroke-width="22" stroke-linecap="round" opacity="0.9"/>
    </g>

    <!-- ====== Prism body (glass triangle) ====== -->
    <g filter="url(#shadow)">
      <path d="M246,117 L90,383 Q80,400 100,400 L412,400 Q432,400 422,383 L266,117 Q256,100 246,117 Z" fill="url(#faceL)"/>
      <path d="M256,103 L422,383 Q432,400 412,400 L256,400 Z" fill="url(#faceR)"/>
    </g>

    <!-- Rainbow refraction inside prism -->
    <rect x="65" y="232" width="390" height="65" rx="4" fill="url(#band)" opacity="0.22" clip-path="url(#pc)"/>

    <!-- Emoji shine blob -->
    <ellipse cx="190" cy="240" rx="55" ry="62" fill="url(#shine)"/>

    <!-- Left edge highlight -->
    <path d="M244,123 L93,380" stroke="white" stroke-width="3.5" stroke-linecap="round" opacity="0.3"/>

    <!-- Center face divider -->
    <line x1="256" y1="105" x2="256" y2="400" stroke="white" stroke-width="1.5" opacity="0.08"/>

    <!-- Subtle outline -->
    <path d="M246,117 L90,383 Q80,400 100,400 L412,400 Q432,400 422,383 L266,117 Q256,100 246,117 Z" fill="none" stroke="white" stroke-width="2.5" stroke-linejoin="round" opacity="0.18"/>

    <!-- ====== Sparkles ====== -->
    <g filter="url(#glow)">
      <path d="M256,48 L262,78 L292,84 L262,90 L256,120 L250,90 L220,84 L250,78 Z" fill="white"/>
    </g>
    <path d="M460,72 L464,88 L480,92 L464,96 L460,112 L456,96 L440,92 L456,88 Z" fill="white" opacity="0.75"/>
    <path d="M486,210 L488,220 L498,222 L488,224 L486,234 L484,224 L474,222 L484,220 Z" fill="white" opacity="0.55"/>
    <circle cx="56" cy="105" r="3.5" fill="white" opacity="0.45"/>
    <circle cx="455" cy="425" r="3" fill="white" opacity="0.35"/>

  </g>
</svg>
